<svg xmlns="http://www.w3.org/2000/svg" viewBox="0 0 22 18"><defs/><path d="M7.25 11.18c-1.12-.84-1.83-1.64-1.83-1.64S5.41 11 3.53 11H2c-.61 0-1 .4-1 .87v.43c0 .24.19.43.43.43h7.81s.16-.07 0-.17c-.44-.29-1.34-.89-1.99-1.38zM8.9 8.42c.38 0 .75.08 1.09.21.17-.78.25-1.53.1-2L8.7 2.21l-.83 3.13-1.66.52-2.47-2.08 1.4 4.42c.15.48.67 1.06 1.28 1.62a2.92 2.92 0 012.48-1.4zm-.43-1.9c.22-.08.47.05.54.28.07.23-.05.47-.28.54a.43.43 0 11-.26-.82zm-2.07.65c.23-.07.47.05.54.28.08.23-.05.47-.28.55a.432.432 0 01-.54-.29c-.08-.22.05-.47.28-.54z"/><path d="M9.88 9.13c-.3-.13-.63-.21-.98-.21-.91 0-1.69.5-2.11 1.24 1.06.9 2.21 1.65 2.21 1.65s.53-1.32.88-2.68zM10 4.29c1.07-1.26-.26-2.19.08-3.51.39-1.5 3.74-.4 4.28-.14 3.17 1.5 4.78 3.91 4.78 3.91s1.17 1.47-.09 1.12c-.72-.2-2.13-1.2-3.56-1.63-1.51-.45-3.21-.01-3.87 1.05-1.64 2.68.1 4.45.1 4.45s.29.28.64.56c.26.2.75.41.75.41H10s.67-1.96.67-3.53c0-.64-.89-2.44-.67-2.69zM21.5 17H21v-3h.5c.28 0 .5-.22.5-.5s-.22-.5-.5-.5h-.65c-.38.31-.86.5-1.37.5h-.5v-.01h-1.74c-.85 0-1.54.6-1.54 1.33 0 .99-.43 1.92-1.2 2.62-.25.22-.54.4-.83.56h7.83c.28 0 .5-.22.5-.5s-.22-.5-.5-.5zM10.08 13.23c-.18 0-.34-.07-.49-.16-.05.04-.09.09-.14.11l-.1.05H1.43c-.23 0-.43-.09-.6-.23H.5c-.28 0-.5.22-.5.5s.22.5.5.5H1v3H.5c-.28 0-.5.22-.5.5s.22.5.5.5h9.17c-1.21-.63-2.04-1.81-2.04-3.18a1.25 1.25 0 012.5 0v.05c.03.71.71 1.28 1.54 1.28.85 0 1.54-.6 1.54-1.33 0-.57.16-1.11.42-1.59h-3.55z"/><path d="M19.48 9.06h-.3c-.91-4.92-4.88-4.71-5.37-4.71-1.76.37-2.46 1.65-2.36 3.32.12 2.05 2.53 2.83 3.96 2.83.14 0 .25.11.25.25s-.1.25-.24.25h-4.9a.87.87 0 00-.87.87v.43c0 .24.19.43.43.43h3.85c.73-.96 1.94-1.59 3.32-1.59h2.11c0-.05.01-.09.01-.14 0-.21-.02-.39-.04-.59h.14c.18 0 .4.27.4.62s-.21.62-.4.62h-2.24c-1.96 0-3.54 1.42-3.54 3.18 0 1.01-.92 1.83-2.04 1.83s-2.04-.82-2.04-1.83c0-.41-.34-.75-.75-.75s-.75.34-.75.75c0 1.75 1.59 3.18 3.54 3.18s3.54-1.42 3.54-3.18c0-1.01.92-1.83 2.04-1.83h2.24c1 0 1.8-.88 1.8-1.97.01-1.09-.79-1.97-1.79-1.97z"/></svg>